<svg width="155" height="59" viewBox="0 0 155 59" fill="none" xmlns="http://www.w3.org/2000/svg">
<path d="M23.0234 26.6641C23.0078 26.7266 22.9844 26.8359 22.9531 26.9922C22.9219 27.1328 22.8828 27.2969 22.8359 27.4844C22.7891 27.6562 22.75 27.8203 22.7188 27.9766C22.6719 28.1172 22.6328 28.2188 22.6016 28.2812C22.5391 28.4531 22.4453 28.6406 22.3203 28.8438C22.1797 29.0312 22.0078 29.125 21.8047 29.125C21.4766 29.125 21.1094 29.1016 20.7031 29.0547C20.2969 29.0078 19.8984 28.9375 19.5078 28.8438C19.1016 28.7344 18.7188 28.6016 18.3594 28.4453C17.9844 28.2891 17.6562 28.1016 17.375 27.8828C17.3594 27.8672 17.3125 27.8203 17.2344 27.7422C17.1406 27.6484 17.0469 27.5547 16.9531 27.4609C16.8594 27.3516 16.7734 27.2578 16.6953 27.1797C16.6016 27.1016 16.5469 27.0625 16.5312 27.0625C16.5 27.0469 16.4453 27.0234 16.3672 26.9922C16.2891 26.9453 16.2031 26.8984 16.1094 26.8516C16.0156 26.8047 15.9375 26.7656 15.875 26.7344C15.7969 26.7031 15.7422 26.6797 15.7109 26.6641C15.6953 26.6641 15.6719 26.6484 15.6406 26.6172C15.6094 26.5859 15.5938 26.5625 15.5938 26.5469C15.5312 26.4531 15.4453 26.3359 15.3359 26.1953C15.2266 26.0391 15.1172 25.8906 15.0078 25.75C14.8828 25.5938 14.7812 25.4609 14.7031 25.3516C14.6094 25.2422 14.5547 25.1797 14.5391 25.1641C14.2734 24.6953 14.1094 24.2188 14.0469 23.7344C13.9844 23.2344 13.8672 22.75 13.6953 22.2812C13.6328 22.2188 13.5703 22.125 13.5078 22C13.4453 21.8594 13.4141 21.6953 13.4141 21.5078C13.4141 21.4453 13.4375 21.3125 13.4844 21.1094C13.5156 20.8906 13.5312 20.7656 13.5312 20.7344C13.6094 20.25 13.6797 19.7734 13.7422 19.3047C13.7891 18.8359 13.9375 18.3672 14.1875 17.8984C14.2031 17.8359 14.2578 17.7344 14.3516 17.5938C14.4453 17.4375 14.5547 17.2734 14.6797 17.1016C14.7891 16.9297 14.8984 16.7656 15.0078 16.6094C15.1172 16.4375 15.1953 16.3125 15.2422 16.2344C15.3516 16.1719 15.4141 16.1172 15.4297 16.0703L15.5703 16.0234C15.6016 16.0234 15.6328 16.0078 15.6641 15.9766C15.6797 15.9609 15.6953 15.9531 15.7109 15.9531C15.9141 15.8281 16.0938 15.7266 16.25 15.6484C16.3906 15.5547 16.5234 15.4766 16.6484 15.4141C16.7734 15.3516 16.9141 15.2969 17.0703 15.25C17.2109 15.1875 17.3828 15.125 17.5859 15.0625C18.1797 14.875 18.7188 14.7109 19.2031 14.5703C19.6875 14.4141 20.2188 14.3359 20.7969 14.3359C21 14.3359 21.2422 14.3437 21.5234 14.3594C21.7891 14.375 21.9922 14.4375 22.1328 14.5469C22.1797 14.5625 22.2422 14.6094 22.3203 14.6875C22.3828 14.7656 22.4531 14.8594 22.5312 14.9688C22.5938 15.0625 22.6562 15.1562 22.7188 15.25C22.7656 15.3281 22.7969 15.3906 22.8125 15.4375C22.8438 15.5156 22.875 15.6562 22.9062 15.8594C22.9219 16.0469 22.9375 16.25 22.9531 16.4688C22.9688 16.6875 22.9844 16.8984 23 17.1016C23.0156 17.3047 23.0234 17.4375 23.0234 17.5V22.1172V26.6641ZM33.4766 45.3203C33.4766 45.2891 33.4609 45.2266 33.4297 45.1328C33.4141 45.0859 33.3906 45.0469 33.3594 45.0156C33.3438 44.9844 33.3047 44.9375 33.2422 44.875C33.1797 44.8125 33.1172 44.7578 33.0547 44.7109C32.9766 44.6484 32.9062 44.5938 32.8438 44.5469C32.7812 44.4844 32.7344 44.4453 32.7031 44.4297C32.6094 44.4297 32.4609 44.4219 32.2578 44.4062C32.0547 44.375 31.8438 44.3438 31.625 44.3125C31.4062 44.2656 31.2031 44.2266 31.0156 44.1953C30.8281 44.1641 30.7031 44.1406 30.6406 44.125C30.3906 44.0938 30.1406 44.0781 29.8906 44.0781C29.6406 44.0781 29.3984 44.0547 29.1641 44.0078C28.9297 43.9609 28.7188 43.8828 28.5312 43.7734C28.3281 43.6641 28.1562 43.4844 28.0156 43.2344V41.9922C28.0156 41.2422 27.9922 40.5078 27.9453 39.7891C27.8984 39.0547 27.8203 38.3125 27.7109 37.5625C27.6328 37.4844 27.5938 37.3984 27.5938 37.3047C27.5781 37.1953 27.5703 37.0781 27.5703 36.9531V36.7188C27.5703 36.6875 27.5781 36.6172 27.5938 36.5078C27.6094 36.3984 27.625 36.2891 27.6406 36.1797C27.6562 36.0547 27.6719 35.9453 27.6875 35.8516C27.7031 35.7422 27.7109 35.6797 27.7109 35.6641V33.6719V31.6562C27.6797 31.5781 27.6484 31.4844 27.6172 31.375C27.5859 31.2656 27.5703 31.1953 27.5703 31.1641C27.5703 31.0859 27.5859 30.9609 27.6172 30.7891C27.6484 30.6016 27.6797 30.4922 27.7109 30.4609V26.5469V22.6797C27.7109 22.5859 27.7031 22.3828 27.6875 22.0703C27.6719 21.7578 27.6562 21.4297 27.6406 21.0859C27.625 20.7266 27.6094 20.3984 27.5938 20.1016C27.5781 19.7891 27.5703 19.5938 27.5703 19.5156C27.5703 19.5 27.5781 19.4531 27.5938 19.375C27.6094 19.2812 27.625 19.1875 27.6406 19.0938C27.6562 18.9844 27.6719 18.8906 27.6875 18.8125C27.7031 18.7188 27.7109 18.6562 27.7109 18.625C27.7109 18.5312 27.7188 18.4297 27.7344 18.3203C27.75 18.1953 27.7578 18.0859 27.7578 17.9922C27.7578 17.8359 27.75 17.6953 27.7344 17.5703C27.7188 17.4297 27.7109 17.2969 27.7109 17.1719C27.7109 16.7656 27.7656 16.3828 27.875 16.0234C27.9844 15.6641 28.2422 15.3438 28.6484 15.0625H30.4062C30.4688 15.0625 30.5703 15.0547 30.7109 15.0391C30.8516 15.0234 31 15.0078 31.1562 14.9922C31.3125 14.9766 31.4688 14.9609 31.625 14.9453C31.7656 14.9141 31.8672 14.8828 31.9297 14.8516C32.0703 14.8359 32.2266 14.8203 32.3984 14.8047C32.5547 14.7734 32.7031 14.7344 32.8438 14.6875C32.9844 14.6406 33.1094 14.5703 33.2188 14.4766C33.3125 14.3828 33.3594 14.25 33.3594 14.0781C33.3594 13.9375 33.3125 13.8203 33.2188 13.7266C33.1094 13.6328 32.9844 13.5547 32.8438 13.4922C32.7031 13.4297 32.5547 13.3906 32.3984 13.375C32.2266 13.3438 32.0703 13.3281 31.9297 13.3281H30.2422C30.0859 13.3281 29.8516 13.3203 29.5391 13.3047C29.2109 13.2734 28.875 13.25 28.5312 13.2344C28.1875 13.2031 27.8672 13.1797 27.5703 13.1641C27.2734 13.1328 27.0781 13.1172 26.9844 13.1172C26.9844 13.1016 26.9531 13.0938 26.8906 13.0938C26.8125 13.0781 26.7422 13.0703 26.6797 13.0703C26.6016 13.0547 26.5312 13.0469 26.4688 13.0469C26.3906 13.0469 26.3516 13.0469 26.3516 13.0469C26.2734 13.0469 26.1406 13.0547 25.9531 13.0703C25.7656 13.0703 25.6406 13.0859 25.5781 13.1172C25.4688 13.1797 25.3125 13.2187 25.1094 13.2344C24.9062 13.2344 24.7891 13.2344 24.7578 13.2344C24.7266 13.2344 24.6406 13.2187 24.5 13.1875C24.3438 13.1406 24.2578 13.1172 24.2422 13.1172C24.2266 13.1016 24.1797 13.0938 24.1016 13.0938C24.0078 13.0781 23.9062 13.0625 23.7969 13.0469C23.6875 13.0312 23.5859 13.0234 23.4922 13.0234C23.3828 13.0078 23.3047 13 23.2578 13C22.7734 13 22.3203 13.0156 21.8984 13.0469C21.4766 13.0625 21 13.0703 20.4688 13.0703C20.3594 13.0703 20.2344 13.0781 20.0938 13.0938C19.9531 13.0938 19.8203 13.1016 19.6953 13.1172C19.5703 13.1328 19.4688 13.1484 19.3906 13.1641C19.2969 13.1641 19.2344 13.1641 19.2031 13.1641C19.1719 13.1641 19.0781 13.1563 18.9219 13.1406C18.7656 13.125 18.6719 13.1172 18.6406 13.1172C18.5781 13.1172 18.5156 13.1094 18.4531 13.0938C18.4062 13.0938 18.3594 13.0938 18.3125 13.0938C18.2656 13.0781 18.2266 13.0703 18.1953 13.0703C18.1484 13.0703 18.0703 13.0781 17.9609 13.0938C17.8516 13.1094 17.7656 13.1172 17.7031 13.1172C17.5781 13.1484 17.3672 13.1875 17.0703 13.2344C16.7734 13.2656 16.4688 13.3047 16.1562 13.3516C15.8281 13.3984 15.5234 13.4375 15.2422 13.4688C14.9609 13.5 14.7812 13.5156 14.7031 13.5156C13.875 13.6406 13.1641 13.8906 12.5703 14.2656C11.9609 14.625 11.3359 15.0703 10.6953 15.6016C10.5078 15.7422 10.3125 16 10.1094 16.375C9.89062 16.7344 9.69531 17.1328 9.52344 17.5703C9.33594 17.9922 9.1875 18.4141 9.07812 18.8359C8.96875 19.2422 8.91406 19.5625 8.91406 19.7969V20.2422C8.99219 21.0859 9.0625 21.9375 9.125 22.7969C9.17188 23.6562 9.32812 24.4844 9.59375 25.2812C9.625 25.2812 9.6875 25.3516 9.78125 25.4922C9.85938 25.6172 9.92969 25.7109 9.99219 25.7734C10.2109 26.0859 10.4219 26.3828 10.625 26.6641C10.8125 26.9297 11.0156 27.1875 11.2344 27.4375C11.4375 27.6875 11.6719 27.9297 11.9375 28.1641C12.1875 28.3828 12.4766 28.5859 12.8047 28.7734C12.8984 28.8359 13.0469 28.9141 13.25 29.0078C13.4531 29.1016 13.6641 29.2031 13.8828 29.3125C14.1016 29.4062 14.2969 29.5 14.4688 29.5938C14.625 29.6875 14.7031 29.7656 14.7031 29.8281V29.8984C13.875 30.5859 13.1797 31.3594 12.6172 32.2188C12.0547 33.0625 11.4688 33.9141 10.8594 34.7734C10.8594 34.8047 10.8125 34.8672 10.7188 34.9609C10.6094 35.0547 10.5312 35.1016 10.4844 35.1016C10.4531 35.1484 10.4062 35.2266 10.3438 35.3359C10.2656 35.4297 10.1953 35.5234 10.1328 35.6172C10.0547 35.7109 9.98438 35.7969 9.92188 35.875C9.85938 35.9531 9.82031 35.9922 9.80469 35.9922C9.75781 36.0703 9.67188 36.2266 9.54688 36.4609C9.40625 36.6953 9.25781 36.9531 9.10156 37.2344C8.94531 37.5 8.80469 37.75 8.67969 37.9844C8.53906 38.2031 8.45312 38.3438 8.42188 38.4062C8.20312 38.7969 7.96094 39.1172 7.69531 39.3672C7.41406 39.6016 7.125 39.8828 6.82812 40.2109C6.65625 40.4766 6.50781 40.7578 6.38281 41.0547C6.25781 41.3516 6.125 41.6094 5.98438 41.8281C5.76562 42.2188 5.48438 42.5625 5.14062 42.8594C4.79688 43.1562 4.44531 43.4609 4.08594 43.7734C3.94531 43.8984 3.67188 43.9688 3.26562 43.9844C2.84375 44 2.42188 44.0312 2 44.0781C1.5625 44.1094 1.17188 44.2031 0.828125 44.3594C0.484375 44.5 0.3125 44.7734 0.3125 45.1797C0.3125 45.4297 0.421875 45.6641 0.640625 45.8828C0.84375 46.1016 1.08594 46.2109 1.36719 46.2109C2.11719 46.2109 2.875 46.1562 3.64062 46.0469C4.39062 45.9375 5.17188 45.8828 5.98438 45.8828H6.3125C6.35938 45.8828 6.47656 45.8906 6.66406 45.9062C6.83594 45.9219 7.03125 45.9375 7.25 45.9531C7.46875 45.9531 7.67188 45.9609 7.85938 45.9766C8.04688 45.9922 8.16406 46 8.21094 46C8.32031 46.0156 8.57812 46.0391 8.98438 46.0703C9.375 46.1016 9.79688 46.1328 10.25 46.1641C10.7031 46.1953 11.1328 46.2188 11.5391 46.2344C11.9297 46.2656 12.1719 46.2812 12.2656 46.2812C12.2969 46.2812 12.3516 46.2891 12.4297 46.3047C12.5078 46.3359 12.6016 46.3672 12.7109 46.3984C12.8047 46.4297 12.8984 46.4531 12.9922 46.4688C13.0703 46.5 13.1172 46.5156 13.1328 46.5156H13.9297C14.2109 46.5156 14.4766 46.4297 14.7266 46.2578C14.9609 46.1016 15.0781 45.8281 15.0781 45.4375C15.0781 45.375 15.0781 45.2891 15.0781 45.1797C15.0625 45.0547 15.0391 44.9375 15.0078 44.8281C14.9766 44.7188 14.9297 44.625 14.8672 44.5469C14.7891 44.4688 14.6797 44.4297 14.5391 44.4297H11.3516C11.2734 44.4297 11.2266 44.3672 11.2109 44.2422C11.1953 44.1016 11.1875 44 11.1875 43.9375C11.1875 43.5781 11.3203 43.2422 11.5859 42.9297C11.8359 42.6172 12.0625 42.3125 12.2656 42.0156C12.4844 41.6719 12.6875 41.3203 12.875 40.9609C13.0625 40.6016 13.2812 40.2422 13.5312 39.8828C13.7969 39.3828 14.125 38.8906 14.5156 38.4062C14.9062 37.9219 15.2656 37.4141 15.5938 36.8828C15.625 36.8359 15.6953 36.7266 15.8047 36.5547C15.8984 36.3828 16.0078 36.2031 16.1328 36.0156C16.2578 35.8125 16.375 35.625 16.4844 35.4531C16.5938 35.2656 16.6641 35.1484 16.6953 35.1016C16.7891 34.9766 16.9609 34.7656 17.2109 34.4688C17.4609 34.1719 17.7266 33.8594 18.0078 33.5312C18.2734 33.1875 18.5312 32.875 18.7812 32.5938C19.0156 32.2969 19.1875 32.1016 19.2969 32.0078C19.3125 31.9453 19.3438 31.875 19.3906 31.7969C19.4219 31.7188 19.4688 31.6719 19.5312 31.6562C19.8438 31.2656 20.1797 30.9219 20.5391 30.625C20.8828 30.3281 21.3203 30.1797 21.8516 30.1797H22.1328C22.1484 30.2578 22.1875 30.3594 22.25 30.4844C22.3125 30.6094 22.3828 30.7422 22.4609 30.8828C22.5234 31.0078 22.5938 31.1328 22.6719 31.2578C22.7344 31.3672 22.7812 31.4453 22.8125 31.4922V31.6094C22.8125 31.875 22.7812 32.1172 22.7188 32.3359C22.6406 32.5391 22.6016 32.7812 22.6016 33.0625C22.6016 33.3125 22.6094 33.5547 22.625 33.7891C22.6406 34.0234 22.7031 34.2969 22.8125 34.6094V42.5078C22.8125 42.9766 22.7344 43.3906 22.5781 43.75C22.4062 44.1094 22.0625 44.2891 21.5469 44.2891C21.1406 44.2891 20.75 44.2656 20.375 44.2188C20 44.1562 19.6094 44.125 19.2031 44.125C18.9844 44.125 18.7734 44.2109 18.5703 44.3828C18.3672 44.5391 18.2656 44.75 18.2656 45.0156C18.2656 45.3125 18.3203 45.5859 18.4297 45.8359C18.5391 46.0859 18.7734 46.2109 19.1328 46.2109C19.1641 46.2109 19.2344 46.2031 19.3438 46.1875C19.4375 46.1719 19.5469 46.1484 19.6719 46.1172C19.7812 46.1016 19.8906 46.0781 20 46.0469C20.0938 46.0312 20.1562 46.0156 20.1875 46H20.9141C21.2266 46 21.5391 46.0312 21.8516 46.0938C22.1484 46.1719 22.4688 46.2109 22.8125 46.2109C23.3125 46.2109 23.8047 46.1719 24.2891 46.0938C24.7578 46.0312 25.2422 46 25.7422 46C26.0547 46 26.3516 46.0312 26.6328 46.0938C26.9141 46.1719 27.2109 46.2109 27.5234 46.2109H27.7109C27.8047 46.2109 27.9922 46.2031 28.2734 46.1875C28.5547 46.1719 28.8594 46.1484 29.1875 46.1172C29.5 46.1016 29.7969 46.0781 30.0781 46.0469C30.3594 46.0312 30.5469 46.0156 30.6406 46C30.7031 46 30.8828 46.0078 31.1797 46.0234C31.4609 46.0391 31.7266 46.0469 31.9766 46.0469C32.1172 46.0469 32.2422 46.0469 32.3516 46.0469C32.4453 46.0469 32.5078 46.0312 32.5391 46C32.5703 46 32.6719 45.9922 32.8438 45.9766C33 45.9453 33.1172 45.9141 33.1953 45.8828C33.3359 45.8359 33.4219 45.7578 33.4531 45.6484C33.4688 45.5234 33.4766 45.4141 33.4766 45.3203Z" fill="white"/>
<path d="M36.4766 13.0703C36.4766 12.8203 36.5938 12.6562 36.8281 12.5781C37.0781 12.4844 37.3359 12.4375 37.6016 12.4375H39.4297C39.5859 12.4219 39.8828 12.4063 40.3203 12.3906C40.7734 12.375 41.2422 12.3594 41.7266 12.3438C42.2266 12.3125 42.6953 12.2891 43.1328 12.2734C43.5859 12.2578 43.9062 12.2422 44.0938 12.2266C44.125 12.2578 44.2344 12.2969 44.4219 12.3438C44.6094 12.375 44.7422 12.4063 44.8203 12.4375H44.9375C45.1406 12.4375 45.3203 12.3828 45.4766 12.2734C45.6484 12.1641 45.8203 12.1094 45.9922 12.1094C46.0234 12.0781 46.1172 12.0625 46.2734 12.0625C46.3984 12.0625 46.5312 12.0703 46.6719 12.0859C46.8125 12.1016 46.8984 12.1094 46.9297 12.1094C47.0547 12.0781 47.25 12.0469 47.5156 12.0156C47.7969 11.9688 48.0781 11.9219 48.3594 11.875C48.6562 11.8281 48.9219 11.7891 49.1562 11.7578C49.4062 11.7266 49.5703 11.7031 49.6484 11.6875C49.6641 11.6875 49.7109 11.6719 49.7891 11.6406C49.8828 11.6094 49.9766 11.5781 50.0703 11.5469C50.1797 11.5 50.2734 11.4609 50.3516 11.4297C50.4453 11.3828 50.5078 11.3516 50.5391 11.3359C50.6016 11.3047 50.7266 11.2656 50.9141 11.2188C51.1016 11.1562 51.2031 11.125 51.2188 11.125H52.4141H53.5859C53.7891 11.2031 53.9062 11.3281 53.9375 11.5C53.9688 11.6719 53.9844 11.8359 53.9844 11.9922C53.9844 12.0547 53.9766 12.1406 53.9609 12.25C53.9453 12.3438 53.9375 12.4063 53.9375 12.4375C53.9375 12.4687 53.9062 12.5234 53.8438 12.6016C53.7812 12.6641 53.7109 12.7344 53.6328 12.8125C53.5547 12.875 53.4766 12.9375 53.3984 13C53.3359 13.0469 53.2891 13.0703 53.2578 13.0703C53.1328 13.1172 52.9297 13.1641 52.6484 13.2109C52.3672 13.2578 52.0703 13.3047 51.7578 13.3516C51.4609 13.3828 51.1719 13.4141 50.8906 13.4453C50.625 13.4766 50.4375 13.4922 50.3281 13.4922C50.3125 13.4922 50.2734 13.5 50.2109 13.5156C50.1484 13.5156 50.0703 13.5156 49.9766 13.5156C49.7891 13.5156 49.5781 13.5156 49.3438 13.5156C49.125 13.5 48.9844 13.4922 48.9219 13.4922C48.7031 13.5078 48.4609 13.5469 48.1953 13.6094C47.9453 13.6562 47.75 13.7891 47.6094 14.0078C47.6094 14.0859 47.5938 14.2188 47.5625 14.4062C47.5312 14.5938 47.5 14.7969 47.4688 15.0156C47.4375 15.2188 47.3984 15.4219 47.3516 15.625C47.3203 15.8125 47.3047 15.9375 47.3047 16C47.3047 16.0312 47.2812 16.125 47.2344 16.2812C47.1875 16.4219 47.1641 16.5 47.1641 16.5156C47.1484 16.5625 47.1328 16.6172 47.1172 16.6797C47.1016 16.7422 47.0938 16.8281 47.0938 16.9375C47.0938 17.2969 47.125 17.6406 47.1875 17.9688C47.2656 18.2969 47.3047 18.6641 47.3047 19.0703C47.3047 19.6484 47.2812 20.2109 47.2344 20.7578C47.1875 21.2891 47.1641 21.8359 47.1641 22.3984C47.1641 22.4297 47.1719 22.4844 47.1875 22.5625C47.2031 22.625 47.2188 22.7031 47.2344 22.7969C47.25 22.8906 47.2656 22.9766 47.2812 23.0547C47.2969 23.1328 47.3047 23.1875 47.3047 23.2188C47.3047 23.25 47.3047 23.3438 47.3047 23.5C47.3203 23.6406 47.3281 23.8047 47.3281 23.9922C47.3281 24.1797 47.3281 24.3828 47.3281 24.6016C47.3281 24.8203 47.3203 25.0312 47.3047 25.2344C47.3047 25.4375 47.3047 25.6172 47.3047 25.7734C47.3047 25.9297 47.3047 26.0391 47.3047 26.1016C47.3047 26.1016 47.3125 26.1406 47.3281 26.2188C47.3438 26.2812 47.3594 26.3516 47.375 26.4297C47.3906 26.4922 47.4062 26.5625 47.4219 26.6406C47.4375 26.7031 47.4453 26.7344 47.4453 26.7344C47.4453 26.7969 47.4531 26.9141 47.4688 27.0859C47.4844 27.2578 47.5 27.4453 47.5156 27.6484C47.5469 27.8359 47.5703 28.0234 47.5859 28.2109C47.6016 28.3828 47.6094 28.5156 47.6094 28.6094L47.6562 28.7031C47.6875 28.7656 47.7031 28.8125 47.7031 28.8438C47.7031 29.8125 47.6562 30.7812 47.5625 31.75C47.4688 32.7188 47.3828 33.6953 47.3047 34.6797C47.3047 34.7266 47.3125 34.8125 47.3281 34.9375C47.3438 35.0469 47.3594 35.1719 47.375 35.3125C47.3906 35.4375 47.4062 35.5625 47.4219 35.6875C47.4375 35.8125 47.4453 35.8984 47.4453 35.9453C47.4609 36.0703 47.4766 36.2812 47.4922 36.5781C47.5234 36.8594 47.5469 37.1641 47.5625 37.4922C47.5781 37.8203 47.5859 38.1328 47.5859 38.4297C47.6016 38.7109 47.6094 38.9062 47.6094 39.0156C47.6406 39.0625 47.6562 39.1875 47.6562 39.3906C47.6562 39.5781 47.6562 39.7969 47.6562 40.0469C47.6562 40.2812 47.6484 40.5234 47.6328 40.7734C47.6328 41.0234 47.6328 41.2656 47.6328 41.5C47.6328 41.7188 47.625 41.9141 47.6094 42.0859C47.6094 42.2422 47.6094 42.3438 47.6094 42.3906C47.625 42.4688 47.6406 42.5781 47.6562 42.7188C47.6875 42.8594 47.7188 43 47.75 43.1406C47.7812 43.2812 47.8281 43.4141 47.8906 43.5391C47.9688 43.6484 48.0703 43.7266 48.1953 43.7734C48.2578 43.7734 48.3828 43.7812 48.5703 43.7969C48.7578 43.8125 48.9531 43.8281 49.1562 43.8438C49.375 43.8438 49.5781 43.8516 49.7656 43.8672C49.9531 43.8828 50.0781 43.8906 50.1406 43.8906C50.2031 43.8906 50.3047 43.9062 50.4453 43.9375C50.5859 43.9688 50.6719 43.9922 50.7031 44.0078C50.875 44.0078 51.1719 44.0078 51.5938 44.0078C52.0312 43.9922 52.5156 43.9844 53.0469 43.9844C53.5469 43.9844 54.0156 43.9922 54.4531 44.0078C54.8906 44.0078 55.1953 44.0078 55.3672 44.0078C55.3828 44.0078 55.4375 44.0156 55.5312 44.0312C55.6406 44.0469 55.7578 44.0703 55.8828 44.1016C56.0078 44.1172 56.125 44.1406 56.2344 44.1719C56.3594 44.1875 56.4375 44.2031 56.4688 44.2188C57.1406 44.25 57.8359 44.3125 58.5547 44.4062C59.2891 44.5 60.0078 44.5469 60.7109 44.5469C60.9141 44.5469 61.0703 44.5391 61.1797 44.5234C61.3047 44.4922 61.4766 44.4453 61.6953 44.3828C62.0547 44.1953 62.4062 44.0078 62.75 43.8203C63.0938 43.6172 63.4453 43.4219 63.8047 43.2344C63.8984 43.125 63.9844 43.0391 64.0625 42.9766C64.1406 42.9141 64.2188 42.8594 64.2969 42.8125C64.375 42.7656 64.4531 42.7109 64.5312 42.6484C64.625 42.5859 64.7344 42.5 64.8594 42.3906C65.3125 42 65.7109 41.5625 66.0547 41.0781C66.4141 40.5938 66.7578 40.1016 67.0859 39.6016C67.4141 39.0859 67.7422 38.5781 68.0703 38.0781C68.3984 37.5625 68.7734 37.0938 69.1953 36.6719C69.1953 36.6406 69.2344 36.625 69.3125 36.625H69.3359C69.3359 36.625 69.3672 36.6406 69.4297 36.6719L69.4766 36.8125C69.4922 36.8438 69.5078 36.875 69.5234 36.9062C69.5391 36.9375 69.5469 36.9688 69.5469 37C69.5625 37.0469 69.5859 37.1641 69.6172 37.3516C69.6484 37.5234 69.6797 37.7188 69.7109 37.9375C69.7422 38.1562 69.7734 38.3672 69.8047 38.5703C69.8359 38.7734 69.8594 38.9219 69.875 39.0156V39.1562V39.3438C69.875 39.4219 69.8594 39.6016 69.8281 39.8828C69.7969 40.1484 69.7578 40.4453 69.7109 40.7734C69.6797 41.1016 69.6484 41.4141 69.6172 41.7109C69.5859 41.9922 69.5625 42.1797 69.5469 42.2734C69.5469 42.3203 69.5391 42.4453 69.5234 42.6484C69.5078 42.8516 69.4922 43.0781 69.4766 43.3281C69.4766 43.5625 69.4688 43.7891 69.4531 44.0078C69.4375 44.2109 69.4297 44.3359 69.4297 44.3828C69.3516 44.8828 69.2031 45.2812 68.9844 45.5781C68.7656 45.8594 68.4297 46 67.9766 46C67.8359 45.9688 67.5859 45.9531 67.2266 45.9531C66.8672 45.9531 66.4844 45.9531 66.0781 45.9531C65.6719 45.9531 65.2891 45.9531 64.9297 45.9531C64.5703 45.9531 64.3281 45.9688 64.2031 46C64.1719 46 64.1094 46 64.0156 46C63.9375 46.0156 63.8438 46.0312 63.7344 46.0469C63.625 46.0625 63.5234 46.0703 63.4297 46.0703C63.3516 46.0859 63.2969 46.1016 63.2656 46.1172H58.4375C58.3281 46.1328 58.0469 46.1484 57.5938 46.1641C57.1562 46.1953 56.6875 46.2188 56.1875 46.2344C55.6875 46.2656 55.2109 46.2891 54.7578 46.3047C54.3203 46.3203 54.0469 46.3281 53.9375 46.3281H53.8672H53.75C53.6562 46.3125 53.4141 46.2891 53.0234 46.2578C52.6484 46.2266 52.2344 46.1875 51.7812 46.1406C51.3438 46.1094 50.9375 46.0781 50.5625 46.0469C50.1875 46.0156 49.9531 46 49.8594 46H48.1953C48.1641 46 48.0703 45.9844 47.9141 45.9531C47.7578 45.9062 47.6562 45.8828 47.6094 45.8828C47.6094 45.8828 47.5703 45.8906 47.4922 45.9062C47.4297 45.9219 47.3594 45.9375 47.2812 45.9531C47.2031 45.9531 47.125 45.9609 47.0469 45.9766C46.9844 45.9922 46.9453 46 46.9297 46H45.8281C44.6094 46.0312 43.3828 46.0938 42.1484 46.1875C40.9297 46.2812 39.6953 46.3281 38.4453 46.3281H37.3203C37.2891 46.3281 37.25 46.3203 37.2031 46.3047C37.1719 46.2891 37.0859 46.2266 36.9453 46.1172C36.9141 46.0859 36.8828 46.0156 36.8516 45.9062C36.8359 45.7969 36.8281 45.6953 36.8281 45.6016C36.8281 45.4297 36.8594 45.2812 36.9219 45.1562C37 45.0156 37.1016 44.9297 37.2266 44.8984C37.2578 44.8828 37.3203 44.8516 37.4141 44.8047C37.5078 44.7422 37.5703 44.6953 37.6016 44.6641C37.9141 44.5234 38.2812 44.4531 38.7031 44.4531C39.1406 44.4531 39.5781 44.4453 40.0156 44.4297C40.4531 44.3984 40.8594 44.3281 41.2344 44.2188C41.6094 44.0938 41.8984 43.8516 42.1016 43.4922C42.1172 43.4297 42.1328 43.3125 42.1484 43.1406C42.1641 42.9531 42.1797 42.7656 42.1953 42.5781C42.2109 42.375 42.2266 42.1953 42.2422 42.0391C42.2578 41.8672 42.2656 41.7578 42.2656 41.7109C42.2656 41.6641 42.2344 41.5625 42.1719 41.4062C42.125 41.2344 42.1016 41.1328 42.1016 41.1016V39.8828L42.0312 39.3438C42.0156 39.3125 42.0078 39.2812 42.0078 39.25C41.9922 39.2188 41.9844 39.1875 41.9844 39.1562C41.9844 38.9062 42 38.6953 42.0312 38.5234C42.0781 38.3516 42.1016 38.1562 42.1016 37.9375V37.5625C42.1016 37.5 42.0859 37.3984 42.0547 37.2578C42.0391 37.1172 42.0312 37.0312 42.0312 37C42.0312 36.9531 42.0391 36.8359 42.0547 36.6484C42.0859 36.4609 42.1016 36.3359 42.1016 36.2734V34.6797C42.1016 34.6016 42.1328 34.4609 42.1953 34.2578C42.2578 34.0547 42.2812 33.9141 42.2656 33.8359C42.2344 33.7578 42.2031 33.5391 42.1719 33.1797C42.1562 32.8203 42.1328 32.2422 42.1016 31.4453V29.8281C42.1328 29.0312 42.1562 28.4609 42.1719 28.1172C42.2031 27.7734 42.2344 27.5703 42.2656 27.5078V27.3906C42.2656 26.7969 42.2344 26.2031 42.1719 25.6094C42.125 25.0156 42.1016 24.4219 42.1016 23.8281C42.1016 23.7188 42.0938 23.6094 42.0781 23.5C42.0625 23.3906 42.0547 23.2812 42.0547 23.1719C42.0547 23.0312 42.0859 22.8359 42.1484 22.5859C42.2266 22.3203 42.2656 22.0156 42.2656 21.6719C42.2656 21.2812 42.2578 20.8828 42.2422 20.4766C42.2266 20.0547 42.2188 19.6406 42.2188 19.2344C42.2188 18.875 42.2266 18.5234 42.2422 18.1797C42.2578 17.8203 42.2656 17.4609 42.2656 17.1016C42.1875 16.9297 42.1328 16.7266 42.1016 16.4922C42.0859 16.2578 42.0625 16.0312 42.0312 15.8125C42.0156 15.5781 41.9844 15.3672 41.9375 15.1797C41.9062 14.9766 41.8281 14.8281 41.7031 14.7344C41.4844 14.5625 41.1641 14.4531 40.7422 14.4062C40.3359 14.3437 39.8828 14.2891 39.3828 14.2422C38.9609 14.2109 38.5312 14.1875 38.0938 14.1719C37.6719 14.1406 37.3203 14.0625 37.0391 13.9375C36.6641 13.7969 36.4766 13.5078 36.4766 13.0703ZM74.8672 39.5547C74.8359 39.4453 74.7656 39.1641 74.6562 38.7109C74.5625 38.2422 74.5156 37.5078 74.5156 36.5078V31.2109C74.4844 31.1328 74.4609 31.0078 74.4453 30.8359C74.4297 30.6641 74.4219 30.5391 74.4219 30.4609C74.4062 30.3984 74.3906 30.25 74.375 30.0156C74.375 29.7812 74.375 29.5391 74.375 29.2891C74.375 29.0234 74.375 28.7812 74.375 28.5625C74.375 28.3281 74.375 28.1797 74.375 28.1172C74.375 28.1016 74.3516 28.0547 74.3047 27.9766C74.2734 27.8828 74.2344 27.7812 74.1875 27.6719C74.1562 27.5469 74.1172 27.4297 74.0703 27.3203C74.0234 27.2109 73.9922 27.125 73.9766 27.0625C73.9141 26.875 73.75 26.7266 73.4844 26.6172C73.2344 26.4922 72.9531 26.3828 72.6406 26.2891C72.3281 26.1953 72.0156 26.1094 71.7031 26.0312C71.3906 25.9531 71.1484 25.875 70.9766 25.7969C70.7891 25.7188 70.6797 25.6016 70.6484 25.4453C70.6172 25.2891 70.6016 25.1406 70.6016 25C70.6016 24.9688 70.6328 24.8906 70.6953 24.7656C70.7266 24.7031 70.7656 24.6484 70.8125 24.6016C70.8438 24.5234 70.9453 24.4375 71.1172 24.3438C71.2891 24.2344 71.4062 24.1719 71.4688 24.1562C71.5156 24.1562 71.625 24.1562 71.7969 24.1562C71.9844 24.1562 72.1797 24.1562 72.3828 24.1562C72.5859 24.1562 72.7734 24.1562 72.9453 24.1562C73.1328 24.1406 73.25 24.125 73.2969 24.1094C73.3125 24.1094 73.3516 24.1094 73.4141 24.1094C73.4922 24.0938 73.5703 24.0781 73.6484 24.0625C73.7266 24.0469 73.7969 24.0391 73.8594 24.0391C73.9219 24.0234 73.9609 24.0156 73.9766 24.0156H75.0781C75.125 24.0156 75.2109 24.0078 75.3359 23.9922C75.4766 23.9766 75.6172 23.9609 75.7578 23.9453C75.9141 23.9297 76.0547 23.9141 76.1797 23.8984C76.3203 23.8672 76.4141 23.8438 76.4609 23.8281C76.4922 23.8281 76.5391 23.8203 76.6016 23.8047C76.6797 23.7891 76.7578 23.7812 76.8359 23.7812C76.9297 23.7656 77.0078 23.75 77.0703 23.7344C77.1484 23.7188 77.1953 23.7109 77.2109 23.7109C77.5078 23.7266 77.8281 23.8125 78.1719 23.9688C78.5156 24.125 78.7969 24.3359 79.0156 24.6016V25.3984C79.0156 26.6016 78.9453 27.7891 78.8047 28.9609C78.6641 30.1172 78.5938 31.2969 78.5938 32.5C78.5938 33 78.625 33.4922 78.6875 33.9766C78.7656 34.4609 78.8047 34.9688 78.8047 35.5C78.8047 35.75 78.7656 36.0078 78.6875 36.2734C78.625 36.5234 78.5938 36.7891 78.5938 37.0703C78.5938 37.8203 78.6484 38.5312 78.7578 39.2031C78.8828 39.875 79.1016 40.4609 79.4141 40.9609C79.7266 41.4609 80.1484 41.8594 80.6797 42.1562C81.2266 42.4531 81.9219 42.6016 82.7656 42.6016C83.0625 42.6016 83.3828 42.5781 83.7266 42.5312C84.0703 42.4844 84.4062 42.4141 84.7344 42.3203C85.0781 42.2266 85.3984 42.1016 85.6953 41.9453C86.0078 41.7891 86.2812 41.6016 86.5156 41.3828C86.9062 40.9766 87.2031 40.5859 87.4062 40.2109C87.625 39.8359 87.7812 39.4453 87.875 39.0391C87.9844 38.6172 88.0469 38.1797 88.0625 37.7266C88.0781 37.2578 88.0859 36.7344 88.0859 36.1562C88.0859 36.0156 88.0938 35.8359 88.1094 35.6172C88.125 35.3984 88.1328 35.1797 88.1328 34.9609C88.0859 34.5234 88.0469 34.1641 88.0156 33.8828C88 33.5859 87.9844 33.2891 87.9688 32.9922C87.9531 32.6797 87.9375 32.3359 87.9219 31.9609C87.9219 31.5859 87.9219 31.1016 87.9219 30.5078V26.0078C87.9219 25.9609 87.875 25.9141 87.7812 25.8672C87.7031 25.8047 87.6016 25.75 87.4766 25.7031C87.3672 25.6406 87.25 25.5938 87.125 25.5625C87 25.5156 86.8984 25.4922 86.8203 25.4922C86.8047 25.4609 86.6719 25.4453 86.4219 25.4453C86.2031 25.4453 85.9688 25.4531 85.7188 25.4688C85.4688 25.4844 85.3281 25.4922 85.2969 25.4922C85.125 25.4766 84.9297 25.4375 84.7109 25.375C84.5078 25.3125 84.3047 25.2344 84.1016 25.1406C83.9141 25.0469 83.75 24.9297 83.6094 24.7891C83.4844 24.6484 83.4219 24.4844 83.4219 24.2969V24.1562C83.4531 24.1094 83.4922 24.0625 83.5391 24.0156C83.5703 23.9844 83.5938 23.9531 83.6094 23.9219C83.6406 23.8906 83.6641 23.8594 83.6797 23.8281C83.7266 23.8281 83.8125 23.8203 83.9375 23.8047C84.0781 23.7891 84.2188 23.7812 84.3594 23.7812C84.5 23.7656 84.6328 23.75 84.7578 23.7344C84.8984 23.7188 84.9922 23.7109 85.0391 23.7109C85.3047 23.6797 85.5625 23.6406 85.8125 23.5938C86.0625 23.5312 86.2969 23.5 86.5156 23.5C86.8281 23.5 87.1484 23.5312 87.4766 23.5938C87.8047 23.6406 88.1328 23.6797 88.4609 23.7109C88.5234 23.7109 88.6484 23.7188 88.8359 23.7344C89.0391 23.75 89.25 23.7656 89.4688 23.7812C89.6875 23.7812 89.8828 23.7891 90.0547 23.8047C90.2422 23.8203 90.3594 23.8281 90.4062 23.8281C90.4688 23.8438 90.5703 23.8516 90.7109 23.8516C90.8672 23.8516 91.0156 23.8594 91.1562 23.875C91.3125 23.875 91.4531 23.8984 91.5781 23.9453C91.7031 23.9766 91.7812 24.0469 91.8125 24.1562C91.8594 24.2812 91.9062 24.4297 91.9531 24.6016C92.0156 24.7578 92.0625 24.9297 92.0938 25.1172C92.1406 25.3047 92.1719 25.4922 92.1875 25.6797C92.2188 25.8516 92.2344 26 92.2344 26.125C92.2344 28.1562 92.1641 30.1875 92.0234 32.2188C91.8828 34.2344 91.8125 36.2578 91.8125 38.2891V39.9297C91.8125 39.9609 91.8203 40.0469 91.8359 40.1875C91.8672 40.3125 91.8984 40.4531 91.9297 40.6094C91.9609 40.7656 91.9844 40.9219 92 41.0781C92.0312 41.2188 92.0547 41.3203 92.0703 41.3828C92.0703 41.4766 92.1016 41.6016 92.1641 41.7578C92.2422 41.8984 92.3359 42.0391 92.4453 42.1797C92.5703 42.3047 92.7031 42.4141 92.8438 42.5078C92.9844 42.5859 93.1328 42.6172 93.2891 42.6016C93.3203 42.6016 93.375 42.5859 93.4531 42.5547C93.5469 42.5234 93.6406 42.4844 93.7344 42.4375C93.8438 42.3906 93.9375 42.3516 94.0156 42.3203C94.1094 42.2891 94.1719 42.2734 94.2031 42.2734C94.2188 42.2578 94.2734 42.25 94.3672 42.25C94.4609 42.2344 94.5547 42.2266 94.6484 42.2266C94.7578 42.2109 94.8594 42.2031 94.9531 42.2031C95.0469 42.1875 95.1094 42.1797 95.1406 42.1797C95.1406 42.6641 95.0312 43.0469 94.8125 43.3281C94.6094 43.5938 94.3438 43.8125 94.0156 43.9844C93.7031 44.1406 93.3516 44.2734 92.9609 44.3828C92.5703 44.4922 92.1875 44.625 91.8125 44.7812C91.5938 44.875 91.375 44.9922 91.1562 45.1328C90.9531 45.2734 90.7422 45.4062 90.5234 45.5312C90.3203 45.6562 90.1016 45.7656 89.8672 45.8594C89.6484 45.9531 89.4219 46 89.1875 46C88.8594 46 88.6172 45.9688 88.4609 45.9062C88.3047 45.8438 88.1875 45.75 88.1094 45.625C88.0469 45.4844 88.0078 45.3203 87.9922 45.1328C87.9922 44.9297 87.9688 44.6953 87.9219 44.4297C87.9219 44.3828 87.8906 44.2891 87.8281 44.1484C87.7812 44.0078 87.7578 43.9219 87.7578 43.8906C87.7422 43.8281 87.7188 43.7344 87.6875 43.6094C87.6719 43.4844 87.6562 43.3594 87.6406 43.2344C87.625 43.0938 87.6016 42.9688 87.5703 42.8594C87.5547 42.7344 87.5391 42.6484 87.5234 42.6016H87.4062C87.2812 42.6016 87.125 42.6484 86.9375 42.7422C86.75 42.8203 86.5625 42.9141 86.375 43.0234C86.1875 43.1328 86 43.25 85.8125 43.375C85.6406 43.5 85.5078 43.5938 85.4141 43.6562C85.3828 43.6719 85.3203 43.7344 85.2266 43.8438C85.1328 43.9531 85.0234 44.0781 84.8984 44.2188C84.7891 44.3438 84.6797 44.4609 84.5703 44.5703C84.4766 44.6797 84.4219 44.75 84.4062 44.7812C84.2344 44.8906 83.9688 45.0391 83.6094 45.2266C83.2656 45.3984 82.8906 45.5703 82.4844 45.7422C82.0781 45.9141 81.6875 46.0625 81.3125 46.1875C80.9375 46.3125 80.6562 46.375 80.4688 46.375H80.0234C79.9297 46.3594 79.7969 46.3359 79.625 46.3047C79.4688 46.2891 79.3047 46.2656 79.1328 46.2344C78.9766 46.2188 78.8359 46.2031 78.7109 46.1875C78.5859 46.1719 78.5078 46.1484 78.4766 46.1172C78.4453 46.1172 78.3516 46.0781 78.1953 46C78.0391 45.9062 77.9453 45.8359 77.9141 45.7891C77.6484 45.6484 77.3906 45.5234 77.1406 45.4141C76.9062 45.2891 76.6797 45.1484 76.4609 44.9922C76.2578 44.8359 76.0703 44.6562 75.8984 44.4531C75.7266 44.25 75.5703 43.9844 75.4297 43.6562C75.3828 43.5625 75.3281 43.4375 75.2656 43.2812C75.2031 43.1094 75.1406 42.8672 75.0781 42.5547C75.0312 42.2422 74.9844 41.8516 74.9375 41.3828C74.8906 40.8984 74.8672 40.2891 74.8672 39.5547ZM97.6953 34.8203V34.2344C97.7109 34.1719 97.7344 34.0391 97.7656 33.8359C97.7969 33.6328 97.8281 33.4062 97.8594 33.1562C97.9062 32.9062 97.9375 32.6719 97.9531 32.4531C97.9844 32.2188 98 32.0547 98 31.9609C98.0312 31.8828 98.0703 31.7812 98.1172 31.6562C98.1641 31.5156 98.2109 31.4297 98.2578 31.3984C98.2734 31.3516 98.3203 31.2422 98.3984 31.0703C98.4766 30.8828 98.5625 30.6875 98.6562 30.4844C98.7656 30.2812 98.8594 30.0938 98.9375 29.9219C99.0312 29.7344 99.1016 29.6172 99.1484 29.5703C99.1641 29.5391 99.1875 29.4766 99.2188 29.3828C99.25 29.2734 99.2812 29.1641 99.3125 29.0547C99.3438 28.9297 99.375 28.8203 99.4062 28.7266C99.4375 28.6172 99.4609 28.5391 99.4766 28.4922C99.5234 28.3828 99.5625 28.3047 99.5938 28.2578C99.625 28.2109 99.6562 28.1719 99.6875 28.1406C99.7188 28.0938 99.7578 28.0547 99.8047 28.0234C99.8672 27.9766 99.9453 27.8984 100.039 27.7891C100.711 27.0078 101.391 26.3438 102.078 25.7969C102.781 25.25 103.508 24.8125 104.258 24.4844C105.023 24.1406 105.844 23.8906 106.719 23.7344C107.594 23.5781 108.547 23.5 109.578 23.5C109.641 23.5 109.727 23.5078 109.836 23.5234C109.961 23.5234 110.078 23.5312 110.188 23.5469C110.297 23.5469 110.391 23.5547 110.469 23.5703C110.562 23.5703 110.617 23.5703 110.633 23.5703C110.633 23.5859 110.672 23.6094 110.75 23.6406C110.844 23.6562 110.945 23.6797 111.055 23.7109C111.164 23.7422 111.258 23.7734 111.336 23.8047C111.43 23.8359 111.492 23.8516 111.523 23.8516C112.148 24.0703 112.703 24.3125 113.188 24.5781C113.672 24.8438 114.125 25.25 114.547 25.7969C114.594 25.8438 114.656 25.9609 114.734 26.1484C114.812 26.3359 114.875 26.4688 114.922 26.5469V26.7109C114.922 27.5234 114.758 28.1484 114.43 28.5859C114.102 29.0078 113.508 29.2188 112.648 29.2188C112.336 29.2188 112.055 29.125 111.805 28.9375C111.555 28.7344 111.32 28.4922 111.102 28.2109C110.898 27.9297 110.711 27.6406 110.539 27.3438C110.367 27.0312 110.203 26.7656 110.047 26.5469C110.047 26.5156 110.023 26.4844 109.977 26.4531C109.93 26.4062 109.891 26.3672 109.859 26.3359C109.812 26.2891 109.711 26.2109 109.555 26.1016C109.414 25.9922 109.25 25.875 109.062 25.75C108.891 25.6094 108.727 25.4766 108.57 25.3516C108.414 25.2266 108.297 25.1328 108.219 25.0703C108.188 25.0703 108.07 25.0625 107.867 25.0469C107.68 25.0156 107.531 25 107.422 25C107.375 25 107.312 25.0078 107.234 25.0234C107.156 25.0234 107.07 25.0312 106.977 25.0469C106.898 25.0469 106.828 25.0547 106.766 25.0703C106.703 25.0703 106.664 25.0703 106.648 25.0703C106.305 25.1484 105.984 25.3281 105.688 25.6094C105.406 25.8906 105.133 26.1328 104.867 26.3359C104.742 26.4297 104.633 26.5078 104.539 26.5703C104.445 26.6328 104.359 26.6953 104.281 26.7578C104.203 26.8047 104.125 26.8672 104.047 26.9453C103.969 27.0234 103.891 27.1328 103.812 27.2734C103.625 27.5391 103.43 27.8828 103.227 28.3047C103.023 28.7109 102.844 29.1406 102.688 29.5938C102.531 30.0469 102.398 30.5 102.289 30.9531C102.195 31.3906 102.148 31.7734 102.148 32.1016V32.3359C102.164 32.5391 102.195 32.875 102.242 33.3438C102.305 33.7969 102.367 34.2734 102.43 34.7734C102.492 35.2578 102.547 35.7109 102.594 36.1328C102.656 36.5391 102.695 36.7969 102.711 36.9062C102.789 37.625 102.977 38.3672 103.273 39.1328C103.57 39.8828 103.922 40.5234 104.328 41.0547C104.547 41.3359 104.789 41.6094 105.055 41.875C105.336 42.1406 105.633 42.375 105.945 42.5781C106.273 42.7656 106.602 42.9219 106.93 43.0469C107.273 43.1719 107.625 43.2344 107.984 43.2344C108.391 43.2344 108.836 43.1719 109.32 43.0469C109.805 42.9219 110.242 42.7969 110.633 42.6719C110.695 42.6562 110.805 42.625 110.961 42.5781C111.117 42.5312 111.266 42.4844 111.406 42.4375C111.562 42.375 111.703 42.3203 111.828 42.2734C111.953 42.2266 112.023 42.1953 112.039 42.1797C112.227 42.0703 112.406 41.9375 112.578 41.7812C112.75 41.6094 112.914 41.4453 113.07 41.2891C113.242 41.1328 113.422 41 113.609 40.8906C113.812 40.7812 114.031 40.7266 114.266 40.7266C114.391 40.7266 114.469 40.7656 114.5 40.8438C114.531 40.9062 114.547 40.9766 114.547 41.0547C114.547 41.3984 114.438 41.7266 114.219 42.0391C114.016 42.3516 113.844 42.6172 113.703 42.8359C112.781 44.0859 111.742 44.9766 110.586 45.5078C109.445 46.0234 108.109 46.2812 106.578 46.2812H105.43C105.398 46.2812 105.328 46.2656 105.219 46.2344C105.109 46.2188 104.984 46.1875 104.844 46.1406C104.719 46.1094 104.586 46.0703 104.445 46.0234C104.32 45.9922 104.219 45.9609 104.141 45.9297C104.094 45.8984 104.023 45.8672 103.93 45.8359C103.852 45.8047 103.812 45.7812 103.812 45.7656C103.781 45.7188 103.68 45.6406 103.508 45.5312C103.352 45.4062 103.266 45.3438 103.25 45.3438C103 45.2656 102.672 45.1875 102.266 45.1094C101.859 45.0312 101.523 44.8672 101.258 44.6172C100.555 44.0391 99.9688 43.375 99.5 42.625C99.0469 41.8594 98.6797 41.0469 98.3984 40.1875C98.1328 39.3281 97.9453 38.4453 97.8359 37.5391C97.7422 36.6172 97.6953 35.7109 97.6953 34.8203ZM127.133 34.7734C127.086 34.7734 126.969 34.8203 126.781 34.9141C126.609 35.0078 126.422 35.1172 126.219 35.2422C126.031 35.3516 125.844 35.4688 125.656 35.5938C125.484 35.7031 125.367 35.7812 125.305 35.8281C125.273 35.875 125.18 35.9766 125.023 36.1328C124.867 36.2891 124.695 36.4609 124.508 36.6484C124.336 36.8203 124.172 36.9844 124.016 37.1406C123.859 37.2969 123.766 37.3984 123.734 37.4453C123.672 37.4453 123.594 37.4766 123.5 37.5391L123.359 37.6094C123.281 37.6875 123.172 37.875 123.031 38.1719C122.891 38.4531 122.773 38.75 122.68 39.0625C122.57 39.375 122.508 39.6094 122.492 39.7656C122.477 39.9219 122.469 40.1328 122.469 40.3984C122.469 40.7891 122.516 41.1484 122.609 41.4766C122.703 41.8047 122.953 42.0703 123.359 42.2734C123.422 42.3047 123.508 42.3438 123.617 42.3906C123.742 42.4219 123.859 42.4531 123.969 42.4844C124.094 42.5156 124.203 42.5469 124.297 42.5781C124.391 42.5938 124.461 42.6016 124.508 42.6016C124.586 42.6016 124.688 42.6016 124.812 42.6016C124.938 42.5859 125.07 42.5703 125.211 42.5547C125.352 42.5391 125.477 42.5234 125.586 42.5078C125.711 42.4922 125.805 42.4766 125.867 42.4609C126.445 42.3359 126.906 42.1484 127.25 41.8984C127.594 41.6328 127.836 41.2188 127.977 40.6562C128.008 40.5156 128.055 40.3359 128.117 40.1172C128.18 39.8828 128.234 39.6562 128.281 39.4375C128.344 39.2031 128.398 39 128.445 38.8281C128.492 38.6406 128.516 38.5312 128.516 38.5C128.547 38.5 128.562 38.4688 128.562 38.4062C128.578 38.3281 128.586 38.2812 128.586 38.2656C128.586 38.2188 128.578 38.1641 128.562 38.1016C128.562 38.0234 128.547 37.9688 128.516 37.9375C128.484 37.8281 128.461 37.7266 128.445 37.6328C128.43 37.5547 128.414 37.4766 128.398 37.3984C128.398 37.3203 128.398 37.2656 128.398 37.2344V36.3438C128.367 36.2031 128.312 36.0469 128.234 35.875C128.156 35.6875 128.062 35.5156 127.953 35.3594C127.859 35.1875 127.742 35.0469 127.602 34.9375C127.461 34.8281 127.305 34.7734 127.133 34.7734ZM118.203 41.5469C118.203 41.1562 118.25 40.7031 118.344 40.1875C118.438 39.6562 118.625 39.2188 118.906 38.875C118.922 38.8594 118.992 38.7812 119.117 38.6406C119.258 38.5 119.414 38.3438 119.586 38.1719C119.758 37.9844 119.93 37.8047 120.102 37.6328C120.289 37.4609 120.43 37.3281 120.523 37.2344C121.023 36.7812 121.555 36.3672 122.117 35.9922C122.68 35.6016 123.258 35.2578 123.852 34.9609C123.93 34.9297 124.062 34.8984 124.25 34.8672C124.453 34.8359 124.578 34.8047 124.625 34.7734C124.672 34.7578 124.758 34.7188 124.883 34.6562C125.023 34.5781 125.172 34.5 125.328 34.4219C125.484 34.3281 125.625 34.25 125.75 34.1875C125.891 34.1094 125.977 34.0703 126.008 34.0703C126.273 33.9453 126.516 33.8438 126.734 33.7656C126.969 33.6875 127.188 33.6016 127.391 33.5078C127.594 33.4141 127.789 33.3047 127.977 33.1797C128.164 33.0391 128.344 32.8516 128.516 32.6172C128.547 32.5547 128.57 32.4453 128.586 32.2891C128.617 32.1172 128.641 31.9375 128.656 31.75C128.672 31.5469 128.68 31.3594 128.68 31.1875C128.695 31 128.703 30.8672 128.703 30.7891C128.703 30.4141 128.695 30.0391 128.68 29.6641C128.664 29.2734 128.602 28.9062 128.492 28.5625C128.398 28.2031 128.242 27.8828 128.023 27.6016C127.82 27.3047 127.523 27.0703 127.133 26.8984C127.102 26.8828 127.031 26.8594 126.922 26.8281C126.812 26.7969 126.695 26.7656 126.57 26.7344C126.445 26.6875 126.328 26.6484 126.219 26.6172C126.109 26.5859 126.039 26.5703 126.008 26.5703C126.008 26.5547 125.977 26.5312 125.914 26.5C125.852 26.4688 125.781 26.4375 125.703 26.4062C125.625 26.3594 125.547 26.3281 125.469 26.3125C125.391 26.2812 125.336 26.2578 125.305 26.2422H125.188C124.984 26.2422 124.828 26.2656 124.719 26.3125C124.609 26.3594 124.469 26.4453 124.297 26.5703C124.234 26.6016 124.156 26.6406 124.062 26.6875C123.969 26.7344 123.875 26.7891 123.781 26.8516C123.688 26.9141 123.602 26.9688 123.523 27.0156C123.461 27.0469 123.422 27.0625 123.406 27.0625C123.375 27.0938 123.336 27.1562 123.289 27.25C123.242 27.3281 123.195 27.4219 123.148 27.5312C123.117 27.625 123.086 27.7188 123.055 27.8125C123.023 27.8906 123.008 27.9375 123.008 27.9531C122.992 27.9844 122.977 28.0469 122.961 28.1406C122.945 28.2188 122.93 28.3125 122.914 28.4219C122.898 28.5156 122.883 28.6094 122.867 28.7031C122.852 28.7812 122.844 28.8281 122.844 28.8438C122.844 28.8906 122.812 28.9922 122.75 29.1484C122.688 29.2891 122.633 29.375 122.586 29.4062C122.523 29.75 122.477 30.0391 122.445 30.2734C122.43 30.5078 122.375 30.6953 122.281 30.8359C122.188 30.9766 122.039 31.0781 121.836 31.1406C121.648 31.1875 121.359 31.2109 120.969 31.2109C120.609 31.2109 120.258 31.2031 119.914 31.1875C119.586 31.1719 119.289 31.1172 119.023 31.0234C118.773 30.9141 118.57 30.75 118.414 30.5312C118.258 30.2969 118.18 29.9766 118.18 29.5703C118.18 29.3984 118.188 29.2109 118.203 29.0078C118.219 28.8047 118.273 28.6328 118.367 28.4922C118.383 28.4766 118.422 28.4375 118.484 28.375C118.547 28.2969 118.617 28.2188 118.695 28.1406C118.773 28.0625 118.844 27.9922 118.906 27.9297C118.984 27.8672 119.039 27.8203 119.07 27.7891C120.414 26.7891 121.812 25.9766 123.266 25.3516C124.734 24.7109 126.305 24.3906 127.977 24.3906C128.367 24.3906 128.758 24.4141 129.148 24.4609C129.555 24.5078 129.945 24.6016 130.32 24.7422C130.695 24.8672 131.039 25.0469 131.352 25.2812C131.664 25.5156 131.922 25.8125 132.125 26.1719C132.172 26.2656 132.227 26.3906 132.289 26.5469C132.367 26.7031 132.445 26.8594 132.523 27.0156C132.602 27.1719 132.664 27.3047 132.711 27.4141C132.773 27.5234 132.805 27.5859 132.805 27.6016C132.82 27.6484 132.836 27.7656 132.852 27.9531C132.867 28.125 132.883 28.3125 132.898 28.5156C132.914 28.7031 132.93 28.8906 132.945 29.0781C132.961 29.25 132.969 29.3594 132.969 29.4062C132.969 29.4531 133 29.5234 133.062 29.6172C133.094 29.6641 133.133 29.7031 133.18 29.7344C133.195 29.7344 133.203 29.7734 133.203 29.8516V29.875C133.188 29.8906 133.18 29.8984 133.18 29.8984C133.07 30.2578 133 30.6172 132.969 30.9766C132.938 31.3359 132.883 31.7109 132.805 32.1016C132.805 32.1172 132.781 32.2266 132.734 32.4297C132.703 32.6328 132.688 32.7656 132.688 32.8281C132.656 32.8438 132.641 32.9922 132.641 33.2734C132.641 33.5234 132.648 33.7812 132.664 34.0469C132.68 34.3125 132.688 34.4844 132.688 34.5625C132.688 34.5938 132.672 34.6562 132.641 34.75C132.625 34.8281 132.602 34.9219 132.57 35.0312C132.555 35.125 132.531 35.2188 132.5 35.3125C132.484 35.3906 132.477 35.4375 132.477 35.4531C132.477 35.5 132.461 35.7188 132.43 36.1094C132.398 36.5 132.359 36.9531 132.312 37.4688C132.281 37.9688 132.242 38.4844 132.195 39.0156C132.164 39.5312 132.141 39.9531 132.125 40.2812V40.375V40.5156C132.125 40.5781 132.133 40.7031 132.148 40.8906C132.164 41.0625 132.18 41.25 132.195 41.4531C132.211 41.6562 132.227 41.8516 132.242 42.0391C132.258 42.2266 132.273 42.3672 132.289 42.4609C132.508 42.7109 132.781 42.8906 133.109 43C133.438 43.1094 133.742 43.1641 134.023 43.1641C134.336 43.1641 134.609 43.125 134.844 43.0469C135.094 42.9688 135.352 42.9297 135.617 42.9297C135.648 42.9297 135.742 42.9375 135.898 42.9531C136.07 42.9531 136.18 42.9531 136.227 42.9531C136.383 43.0312 136.477 43.125 136.508 43.2344C136.555 43.3438 136.578 43.4844 136.578 43.6562C136.578 43.6719 136.578 43.7031 136.578 43.75C136.578 43.7969 136.562 43.8203 136.531 43.8203L134.914 45.4844L134.727 45.5781C134.57 45.6406 134.469 45.6719 134.422 45.6719C134.375 45.6719 134.258 45.6797 134.07 45.6953C133.883 45.7109 133.68 45.7266 133.461 45.7422C133.242 45.7578 133.031 45.7734 132.828 45.7891C132.641 45.8047 132.523 45.8203 132.477 45.8359C132.445 45.8359 132.367 45.8516 132.242 45.8828C132.117 45.8984 131.984 45.9219 131.844 45.9531C131.703 45.9688 131.57 45.9844 131.445 46C131.336 46.0156 131.266 46.0156 131.234 46C131.203 46 131.141 45.9922 131.047 45.9766C130.969 45.9453 130.875 45.9141 130.766 45.8828C130.656 45.8359 130.547 45.7969 130.438 45.7656C130.328 45.7344 130.242 45.7031 130.18 45.6719C129.93 45.5781 129.68 45.4531 129.43 45.2969C129.18 45.1406 128.992 44.9531 128.867 44.7344C128.773 44.5625 128.695 44.375 128.633 44.1719C128.586 43.9531 128.523 43.7578 128.445 43.5859C128.383 43.3984 128.289 43.2422 128.164 43.1172C128.039 42.9922 127.844 42.9297 127.578 42.9297C127.562 42.9297 127.547 42.9375 127.531 42.9531C127.531 42.9531 127.523 42.9531 127.508 42.9531H127.461C127.07 43.2031 126.758 43.4922 126.523 43.8203C126.305 44.1484 126.031 44.4531 125.703 44.7344C125.438 44.9531 125.164 45.1406 124.883 45.2969C124.617 45.4375 124.344 45.6172 124.062 45.8359C123.984 45.8672 123.844 45.8984 123.641 45.9297C123.453 45.9609 123.242 45.9922 123.008 46.0234C122.789 46.0703 122.57 46.1016 122.352 46.1172C122.148 46.1484 122 46.1641 121.906 46.1641C121.859 46.1641 121.781 46.1562 121.672 46.1406C121.562 46.1406 121.438 46.1328 121.297 46.1172C121.172 46.1016 121.047 46.0781 120.922 46.0469C120.812 46.0312 120.734 46.0156 120.688 46C120.656 46 120.602 45.9766 120.523 45.9297C120.461 45.8672 120.391 45.8047 120.312 45.7422C120.234 45.6797 120.156 45.625 120.078 45.5781C120.016 45.5156 119.977 45.4844 119.961 45.4844C119.273 45.0156 118.805 44.4375 118.555 43.75C118.32 43.0625 118.203 42.3281 118.203 41.5469ZM139.18 38.9922C139.383 38.9297 139.578 39.0234 139.766 39.2734C139.969 39.5234 140.148 39.8281 140.305 40.1875C140.461 40.5312 140.594 40.8672 140.703 41.1953C140.812 41.5234 140.898 41.7188 140.961 41.7812C140.977 41.8125 141.023 41.8828 141.102 41.9922C141.195 42.0859 141.289 42.1953 141.383 42.3203C141.477 42.4297 141.57 42.5391 141.664 42.6484C141.773 42.7578 141.852 42.8359 141.898 42.8828C141.898 42.9141 141.938 42.9766 142.016 43.0703C142.109 43.1641 142.18 43.2188 142.227 43.2344C142.242 43.3125 142.297 43.4531 142.391 43.6562C142.5 43.8438 142.562 43.9531 142.578 43.9844C142.703 44.1719 142.891 44.3359 143.141 44.4766C143.406 44.6016 143.688 44.7031 143.984 44.7812C144.281 44.8594 144.578 44.9219 144.875 44.9688C145.172 45 145.422 45.0156 145.625 45.0156H145.789C146.32 44.875 146.805 44.6484 147.242 44.3359C147.695 44.0234 148.078 43.6562 148.391 43.2344C148.719 42.8125 148.969 42.3438 149.141 41.8281C149.312 41.3125 149.398 40.7734 149.398 40.2109C149.398 39.9922 149.383 39.7188 149.352 39.3906C149.32 39.0625 149.203 38.7891 149 38.5703C148.938 38.5078 148.844 38.4141 148.719 38.2891C148.609 38.1641 148.484 38.0391 148.344 37.9141C148.219 37.7891 148.102 37.6719 147.992 37.5625C147.898 37.4531 147.828 37.3906 147.781 37.375C147.562 37.2031 147.336 37.0703 147.102 36.9766C146.867 36.8672 146.625 36.7891 146.375 36.7422C146.141 36.6797 145.898 36.6328 145.648 36.6016C145.414 36.5547 145.18 36.5078 144.945 36.4609C144.461 36.3516 143.898 36.1953 143.258 35.9922C142.633 35.7734 142.016 35.5078 141.406 35.1953C140.812 34.8828 140.273 34.5234 139.789 34.1172C139.305 33.6953 138.969 33.2109 138.781 32.6641C138.734 32.5859 138.688 32.4531 138.641 32.2656C138.594 32.0625 138.547 31.8438 138.5 31.6094C138.469 31.375 138.445 31.1406 138.43 30.9062C138.414 30.6719 138.406 30.4609 138.406 30.2734C138.406 30.0234 138.422 29.875 138.453 29.8281C138.453 29.8125 138.453 29.7656 138.453 29.6875C138.469 29.6094 138.477 29.5312 138.477 29.4531C138.492 29.3594 138.5 29.2734 138.5 29.1953C138.516 29.1172 138.523 29.0703 138.523 29.0547C138.523 29.0234 138.531 28.9531 138.547 28.8438C138.578 28.7188 138.609 28.5938 138.641 28.4688C138.688 28.3438 138.719 28.2266 138.734 28.1172C138.766 27.9922 138.781 27.9141 138.781 27.8828C138.781 27.8672 138.805 27.8203 138.852 27.7422C138.914 27.6641 138.977 27.5859 139.039 27.5078C139.117 27.4297 139.18 27.3594 139.227 27.2969C139.289 27.2188 139.328 27.1719 139.344 27.1562C139.391 27.1094 139.445 27.0312 139.508 26.9219C139.586 26.8125 139.664 26.7031 139.742 26.5938C139.82 26.4688 139.891 26.3594 139.953 26.2656C140.031 26.1719 140.086 26.1016 140.117 26.0547C140.211 25.8984 140.289 25.7734 140.352 25.6797C140.43 25.5859 140.516 25.5078 140.609 25.4453C140.703 25.3828 140.805 25.3203 140.914 25.2578C141.023 25.1953 141.164 25.1094 141.336 25C141.352 24.9531 141.406 24.8906 141.5 24.8125C141.609 24.7188 141.672 24.6719 141.688 24.6719C141.719 24.6406 141.773 24.6016 141.852 24.5547C141.93 24.4922 141.984 24.4609 142.016 24.4609C142.125 24.4297 142.266 24.3906 142.438 24.3438C142.625 24.2812 142.805 24.2188 142.977 24.1562C143.148 24.0938 143.297 24.0469 143.422 24.0156C143.562 23.9688 143.633 23.9453 143.633 23.9453C143.773 23.9141 143.914 23.8828 144.055 23.8516C144.18 23.8203 144.289 23.7969 144.383 23.7812C144.492 23.75 144.586 23.7344 144.664 23.7344C145.164 23.7344 145.719 23.7812 146.328 23.875C146.938 23.9531 147.477 24.0312 147.945 24.1094C147.961 24.1094 148.008 24.1328 148.086 24.1797C148.18 24.2109 148.273 24.25 148.367 24.2969C148.477 24.3281 148.578 24.3672 148.672 24.4141C148.766 24.4453 148.828 24.4609 148.859 24.4609C149.031 24.4609 149.18 24.4219 149.305 24.3438C149.43 24.2656 149.547 24.1797 149.656 24.0859C149.781 23.9922 149.898 23.9062 150.008 23.8281C150.133 23.75 150.281 23.7109 150.453 23.7109C150.578 23.7109 150.68 23.7656 150.758 23.875C150.836 23.9844 150.891 24.1172 150.922 24.2734C150.969 24.4141 150.992 24.5625 150.992 24.7188C151.008 24.8594 151.016 24.9688 151.016 25.0469C151.016 25.3594 150.953 25.6562 150.828 25.9375C150.719 26.2188 150.648 26.5 150.617 26.7812C150.586 26.9844 150.57 27.25 150.57 27.5781C150.57 27.9062 150.547 28.2266 150.5 28.5391C150.453 28.8359 150.352 29.1016 150.195 29.3359C150.039 29.5547 149.797 29.6641 149.469 29.6641C149.25 29.6641 149.078 29.5703 148.953 29.3828C148.844 29.1797 148.75 28.9531 148.672 28.7031C148.594 28.4375 148.516 28.1719 148.438 27.9062C148.359 27.6406 148.258 27.4375 148.133 27.2969C147.945 27.0625 147.727 26.8203 147.477 26.5703C147.242 26.3203 146.984 26.0938 146.703 25.8906C146.422 25.6719 146.117 25.5 145.789 25.375C145.477 25.2344 145.148 25.1641 144.805 25.1641H144.688C144.172 25.2891 143.703 25.4453 143.281 25.6328C142.875 25.8203 142.523 26.0625 142.227 26.3594C141.945 26.6562 141.727 27.0156 141.57 27.4375C141.414 27.8594 141.336 28.3672 141.336 28.9609V29.2188C141.336 29.2969 141.359 29.4062 141.406 29.5469C141.453 29.6719 141.5 29.8125 141.547 29.9688C141.609 30.125 141.672 30.2734 141.734 30.4141C141.797 30.5391 141.852 30.625 141.898 30.6719C141.898 30.7188 141.906 30.7656 141.922 30.8125C141.953 30.8438 141.984 30.875 142.016 30.9062C142.281 31.125 142.484 31.2812 142.625 31.375C142.781 31.4688 143.023 31.5469 143.352 31.6094C143.367 31.625 143.43 31.6406 143.539 31.6562C143.648 31.6719 143.773 31.6875 143.914 31.7031C144.055 31.7031 144.188 31.7109 144.312 31.7266C144.438 31.7422 144.523 31.7578 144.57 31.7734C144.586 31.7891 144.641 31.8203 144.734 31.8672C144.844 31.8984 144.953 31.9375 145.062 31.9844C145.188 32.0156 145.297 32.0469 145.391 32.0781C145.5 32.1094 145.562 32.125 145.578 32.125C145.625 32.1406 145.734 32.1719 145.906 32.2188C146.094 32.25 146.289 32.2891 146.492 32.3359C146.695 32.3828 146.883 32.4219 147.055 32.4531C147.242 32.4844 147.359 32.5 147.406 32.5C147.469 32.5312 147.562 32.5625 147.688 32.5938C147.828 32.6094 147.914 32.6328 147.945 32.6641C147.961 32.6797 147.992 32.7109 148.039 32.7578C148.102 32.7891 148.164 32.8281 148.227 32.875L148.461 33.0625C148.492 33.0781 148.562 33.1016 148.672 33.1328C148.781 33.1641 148.898 33.2031 149.023 33.25C149.148 33.2812 149.258 33.3203 149.352 33.3672C149.461 33.3984 149.531 33.4219 149.562 33.4375C149.578 33.4375 149.609 33.4609 149.656 33.5078C149.719 33.5547 149.781 33.6094 149.844 33.6719C149.906 33.7188 149.961 33.7734 150.008 33.8359C150.07 33.8828 150.109 33.9062 150.125 33.9062C150.141 33.9375 150.18 33.9766 150.242 34.0234C150.305 34.0547 150.375 34.0938 150.453 34.1406C150.531 34.1719 150.602 34.2031 150.664 34.2344C150.742 34.2656 150.789 34.2812 150.805 34.2812C151.445 34.75 151.906 35.3203 152.188 35.9922C152.484 36.6484 152.633 37.375 152.633 38.1719C152.633 38.1875 152.625 38.2188 152.609 38.2656C152.609 38.2969 152.609 38.3359 152.609 38.3828V38.5703C152.609 38.7109 152.602 38.9219 152.586 39.2031C152.57 39.4844 152.547 39.7734 152.516 40.0703C152.5 40.3516 152.484 40.6094 152.469 40.8438C152.453 41.0781 152.445 41.2188 152.445 41.2656C152.398 41.5625 152.281 41.8984 152.094 42.2734C151.922 42.6328 151.703 42.9922 151.438 43.3516C151.188 43.6953 150.922 44.0156 150.641 44.3125C150.375 44.6094 150.125 44.8438 149.891 45.0156C149.781 45.1094 149.602 45.2109 149.352 45.3203C149.102 45.4297 148.828 45.5391 148.531 45.6484C148.234 45.7422 147.945 45.8359 147.664 45.9297C147.383 46.0078 147.164 46.0703 147.008 46.1172H145.109C144.969 46.1172 144.789 46.1094 144.57 46.0938C144.352 46.0781 144.133 46.0547 143.914 46.0234C143.711 46.0078 143.531 45.9922 143.375 45.9766C143.219 45.9609 143.133 45.9531 143.117 45.9531C143.07 45.9531 142.984 45.9453 142.859 45.9297C142.75 45.9141 142.633 45.8984 142.508 45.8828C142.398 45.8516 142.297 45.8281 142.203 45.8125C142.109 45.7812 142.047 45.7656 142.016 45.7656C141.984 45.7656 141.898 45.75 141.758 45.7188C141.633 45.6719 141.531 45.6328 141.453 45.6016C141.281 45.5234 141.102 45.4688 140.914 45.4375C140.742 45.3906 140.562 45.3438 140.375 45.2969C140.188 45.2344 140.008 45.1641 139.836 45.0859C139.664 44.9922 139.5 44.8516 139.344 44.6641C139.312 44.6172 139.273 44.5391 139.227 44.4297C139.18 44.3203 139.133 44.2109 139.086 44.1016C139.039 43.9766 138.992 43.8672 138.945 43.7734C138.914 43.6797 138.898 43.6094 138.898 43.5625L138.781 39.3438C138.781 39.2812 138.828 39.2109 138.922 39.1328C139.031 39.0391 139.117 38.9922 139.18 38.9922Z" fill="white"/>
</svg>
